<?xml version="1.0" standalone="no"?>
<!DOCTYPE svg PUBLIC "-//W3C//DTD SVG 20010904//EN"
 "http://www.w3.org/TR/2001/REC-SVG-20010904/DTD/svg10.dtd">
<svg version="1.0" xmlns="http://www.w3.org/2000/svg"
 width="299.000000pt" height="168.000000pt" viewBox="0 0 299.000000 168.000000"
 preserveAspectRatio="xMidYMid meet">

<g transform="translate(0.000000,168.000000) scale(0.100000,-0.100000)"
fill="#000000" stroke="none">
<path d="M0 1345 c0 -184 2 -335 4 -335 2 0 12 -3 22 -7 14 -5 16 -2 12 15 -4
13 -2 22 6 22 6 0 17 9 23 20 12 17 22 19 125 14 62 -2 129 -4 149 -4 20 1 44
-6 52 -15 20 -19 53 -19 61 0 8 22 21 19 58 -14 31 -27 67 -37 158 -45 19 -2
53 -7 74 -11 30 -6 42 -5 50 7 10 14 17 14 48 4 31 -11 39 -11 59 5 22 16 25
16 41 2 10 -9 18 -22 18 -30 0 -7 2 -13 5 -13 7 0 79 41 90 51 14 13 55 11 55
-3 -1 -21 -76 -68 -108 -68 -16 0 -45 -6 -63 -14 -19 -7 -66 -16 -105 -20 -62
-5 -86 -2 -175 24 -57 17 -111 34 -119 38 -32 18 -156 49 -267 66 -28 5 -33 2
-33 -13 0 -11 -5 -21 -11 -23 -8 -3 -10 -17 -5 -43 9 -45 52 -90 120 -123 24
-12 49 -29 56 -37 6 -7 25 -17 41 -20 16 -4 31 -11 34 -16 4 -5 14 -9 24 -9
10 0 24 -6 30 -14 7 -8 27 -18 44 -21 18 -4 41 -13 52 -19 27 -17 94 -28 185
-30 69 -1 76 1 85 22 5 12 18 22 27 22 19 0 83 61 125 119 15 20 32 41 37 46
6 6 19 24 28 40 9 17 25 32 35 34 22 4 42 31 36 48 -3 7 -1 13 4 13 6 0 18 16
29 35 18 34 34 46 34 25 0 -5 5 -10 10 -10 6 0 10 6 9 13 -3 19 12 47 26 47 7
0 27 14 45 30 38 36 55 39 39 8 -12 -25 -78 -88 -91 -88 -4 0 -8 -5 -8 -11 0
-6 -13 -21 -30 -35 -17 -15 -27 -31 -23 -39 3 -10 -1 -15 -13 -15 -9 0 -15 -3
-11 -6 3 -4 -3 -14 -14 -23 -11 -9 -20 -25 -20 -36 1 -39 13 -84 27 -96 8 -6
14 -18 14 -25 0 -9 12 -14 35 -14 29 0 36 4 41 27 5 17 3 28 -4 31 -17 5 -15
22 2 22 8 0 16 6 19 13 12 33 86 -62 87 -111 0 -77 150 -252 215 -252 24 0 18
40 -10 66 -33 30 -46 65 -33 87 11 20 1 77 -13 77 -6 0 -9 10 -7 22 4 31 34
35 42 6 6 -21 7 -22 20 -6 12 17 14 17 30 -1 21 -23 57 -24 48 -2 -3 9 -1 12
6 7 7 -4 12 -2 12 3 0 6 -5 11 -10 11 -6 0 -15 11 -22 24 -15 34 -28 37 -89
21 -75 -20 -73 -11 3 13 51 16 57 20 33 21 -29 2 -29 2 -11 16 17 13 18 15 3
15 -19 0 -24 20 -4 21 6 0 3 4 -8 9 -11 5 -15 9 -9 9 7 1 9 16 4 46 -4 25 -5
45 -2 45 2 0 -1 7 -8 15 -7 8 -8 15 -3 15 8 0 9 17 4 64 -1 4 -8 6 -16 3 -8
-4 -17 -2 -20 3 -3 5 5 11 17 13 20 4 20 4 -4 6 -15 0 -30 -3 -33 -9 -3 -5
-11 -10 -17 -10 -27 0 17 29 50 33 36 4 36 4 -7 5 -53 2 -73 -17 -122 -119
-32 -66 -59 -94 -44 -46 3 12 10 36 14 52 10 40 39 95 63 121 10 12 18 25 17
30 -4 16 13 48 48 91 32 41 42 60 24 49 -5 -4 -12 0 -14 6 -4 10 -6 10 -6 0
-1 -7 -6 -10 -11 -7 -14 8 -55 -19 -92 -59 -38 -42 -37 -12 2 42 28 39 90 82
137 96 19 6 22 2 27 -49 3 -30 9 -80 12 -110 5 -47 3 -55 -11 -55 -9 0 -13 -5
-10 -10 4 -6 11 -8 16 -5 11 8 11 12 14 -130 2 -106 5 -120 20 -124 14 -2 15
-5 4 -11 -11 -7 -10 -13 5 -29 14 -16 31 -21 68 -21 30 0 47 4 43 10 -3 5 -2
10 3 10 5 0 29 18 53 40 31 30 49 40 68 38 21 -2 25 1 23 17 -8 46 -1 131 11
140 7 6 18 23 25 40 l14 30 14 -25 c7 -14 13 -19 14 -11 0 15 40 -25 40 -40 0
-5 6 -6 14 -3 16 6 29 -79 19 -127 -4 -22 -2 -29 10 -29 8 0 17 5 19 12 6 16
48 4 75 -21 22 -21 95 -51 123 -51 8 1 23 11 33 25 21 29 27 178 13 319 -6 65
-5 87 3 82 6 -4 11 -15 11 -25 0 -9 6 -23 13 -30 12 -12 13 -16 16 -45 0 -8 8
-22 17 -30 14 -15 14 -17 -2 -23 -15 -6 -14 -7 6 -15 18 -7 20 -11 10 -23 -7
-8 -8 -15 -3 -15 5 0 9 -17 8 -37 -1 -24 5 -43 14 -50 10 -8 12 -15 6 -20 -5
-5 -10 -24 -11 -43 -2 -64 -9 -82 -46 -123 -21 -23 -36 -43 -34 -45 2 -2 17 3
33 12 28 14 31 13 55 -9 37 -34 51 -14 45 65 -3 49 -1 60 11 60 12 0 10 6 -8
24 -20 23 -21 25 -4 24 11 0 33 4 49 9 49 15 60 11 63 -24 4 -38 2 -37 53 -21
36 10 53 28 28 28 -5 0 -7 5 -3 11 5 8 10 6 16 -5 5 -9 13 -14 18 -11 23 14
75 12 86 -3 11 -15 14 -15 33 3 30 27 62 26 88 -1 27 -29 33 -30 33 -5 0 25
18 37 33 22 6 -6 15 -11 19 -11 4 0 8 162 8 360 l0 360 -1495 0 -1495 0 0
-335z m2430 263 c0 -5 -9 -8 -20 -8 -23 0 -25 6 -7 24 12 13 26 4 27 -16z
m-144 -71 c1 -15 -1 -25 -4 -23 -2 3 -14 1 -25 -5 -14 -8 -18 -8 -13 0 4 7 -1
11 -12 11 -21 0 -36 25 -26 41 3 6 22 9 42 7 33 -3 37 -6 38 -31z m-223 -73
c77 -20 116 -42 117 -65 0 -4 -13 -12 -29 -18 -24 -11 -37 -9 -89 13 -34 14
-64 26 -67 26 -3 0 -5 -11 -5 -25 0 -23 4 -25 48 -25 77 -1 22 -23 -63 -26
-38 -1 -74 -3 -80 -5 -12 -3 -65 22 -65 31 0 3 17 5 38 3 20 -2 31 0 25 3 -7
3 -13 12 -13 20 0 9 5 12 10 9 10 -6 40 17 40 30 0 3 -26 4 -57 2 -45 -4 -61
-10 -78 -29 -20 -23 -24 -24 -47 -12 -33 17 -44 44 -19 44 10 0 47 11 82 24
72 27 147 27 252 0z m-263 -191 c0 -8 -9 0 -50 45 l-45 47 48 -45 c26 -24 47
-45 47 -47z m537 65 c-3 -8 -6 -5 -6 6 -1 11 2 17 5 13 3 -3 4 -12 1 -19z
m-647 -13 c0 -12 -29 -3 -34 10 -4 13 -2 14 14 5 11 -6 20 -13 20 -15z m550
12 c0 -1 -21 -20 -47 -41 l-48 -38 44 41 c40 38 51 46 51 38z m-140 -124 c-11
-17 -11 -17 -6 0 3 10 6 24 7 30 0 9 2 9 5 0 3 -7 0 -20 -6 -30z m-708 -5 c-7
-7 -12 -8 -12 -2 0 14 12 26 19 19 2 -3 -1 -11 -7 -17z m468 -42 c0 -12 -5 -7
-19 24 -11 24 -11 24 3 6 9 -11 16 -24 16 -30z m310 31 c0 -2 -17 -19 -37 -38
l-38 -34 34 38 c33 34 41 42 41 34z m-1283 -40 c-7 -18 -57 -19 -57 -1 0 7 12
14 28 16 33 4 36 3 29 -15z m108 -104 c-10 -42 -26 -58 -37 -39 -6 11 -2 23
14 40 30 32 32 32 23 -1z m528 -23 c-7 -28 -13 -25 -13 6 0 14 4 23 9 20 5 -3
7 -15 4 -26z m638 7 c-6 -8 -7 -18 -3 -22 4 -5 1 -5 -6 -1 -10 6 -10 11 -1 22
6 8 14 14 16 14 3 0 0 -6 -6 -13z m-342 -43 c3 -16 1 -17 -13 -5 -19 16 -21
34 -3 29 6 -3 14 -13 16 -24z m-289 -74 c0 -5 -7 -7 -15 -4 -8 4 -15 8 -15 10
0 2 7 4 15 4 8 0 15 -4 15 -10z m-225 -30 c3 -5 -1 -10 -10 -10 -9 0 -13 5
-10 10 3 6 8 10 10 10 2 0 7 -4 10 -10z m263 -22 c-36 -34 -62 -52 -49 -36 7
9 10 22 6 27 -3 6 0 8 8 5 8 -3 18 -1 22 5 3 6 11 11 16 11 6 0 4 -6 -3 -12z"/>
<path d="M1528 1163 c7 -3 16 -2 19 1 4 3 -2 6 -13 5 -11 0 -14 -3 -6 -6z"/>
<path d="M83 967 c0 -13 9 -29 20 -36 17 -11 23 -10 41 9 21 21 21 21 2 36
-32 23 -63 18 -63 -9z"/>
<path d="M2703 865 c0 -22 2 -30 4 -17 2 12 2 30 0 40 -3 9 -5 -1 -4 -23z"/>
<path d="M1958 852 c-15 -3 -15 -5 0 -33 15 -26 15 -31 2 -39 -9 -6 -16 -6
-18 0 -2 6 -10 3 -18 -4 -19 -19 -18 -26 4 -26 9 0 13 -4 7 -8 -5 -4 -11 -13
-13 -21 -3 -12 0 -12 13 -1 13 11 15 10 10 -3 -4 -8 -2 -18 4 -21 6 -4 8 -13
4 -21 -3 -8 0 -15 6 -15 6 0 11 5 11 12 0 6 3 8 7 4 5 -4 -1 -14 -11 -22 -12
-8 -15 -14 -7 -14 11 0 11 -3 0 -17 -13 -16 -12 -17 3 -5 10 8 17 17 16 20 -1
4 2 15 7 25 5 12 2 22 -11 31 -15 11 -16 18 -7 37 9 18 12 20 12 7 1 -9 9 -22
19 -27 9 -6 12 -11 6 -11 -8 0 -9 -13 -4 -42 5 -24 6 -45 4 -47 -2 -2 -4 1 -4
8 0 7 -5 9 -10 6 -6 -4 -7 -11 -4 -17 5 -7 2 -8 -6 -3 -9 6 -12 4 -8 -6 3 -8
0 -20 -8 -26 -10 -10 -16 -8 -30 10 -16 21 -15 15 3 -30 4 -10 3 -14 -4 -10
-6 4 -14 1 -16 -5 -3 -7 -6 0 -6 16 -1 47 -14 21 -18 -36 -2 -34 2 -60 12 -74
8 -13 15 -34 16 -46 0 -13 3 -18 5 -12 3 7 14 10 25 7 18 -5 19 -2 14 66 -3
39 -2 71 2 71 17 0 34 -18 37 -36 2 -11 10 -18 20 -16 9 2 16 -2 16 -8 0 -5
-6 -10 -12 -10 -7 0 -13 -11 -13 -25 0 -14 6 -25 13 -25 6 0 11 -3 11 -7 -4
-25 2 -36 12 -26 8 8 6 18 -5 35 -15 23 -15 26 10 54 15 16 23 22 19 14 -4 -8
7 2 25 23 30 36 33 37 47 20 13 -17 14 -17 8 5 -4 14 -2 22 5 22 7 0 10 8 7
19 -4 15 1 18 27 18 42 -1 49 17 8 21 -29 3 -31 6 -26 29 6 22 4 24 -13 19
-15 -5 -23 0 -31 20 -7 14 -10 29 -8 32 2 4 -9 7 -25 6 -30 -1 -34 -5 -26 -27
3 -9 7 -9 18 0 13 10 18 7 33 -18 10 -17 16 -32 14 -33 -1 -2 -17 -11 -34 -19
-28 -14 -34 -15 -44 -2 -7 8 -16 12 -21 10 -4 -3 -13 4 -19 15 -6 11 -8 21 -5
21 3 1 9 2 15 3 5 0 14 6 21 13 13 13 3 37 -12 27 -5 -3 -16 0 -24 6 -17 14
-20 45 -4 34 14 -8 60 16 53 28 -3 4 -12 8 -20 8 -9 0 -22 6 -29 14 -12 11
-12 16 0 32 8 11 15 22 15 25 0 6 -45 7 -72 1z m142 -295 c0 -18 -2 -19 -10
-7 -13 20 -13 43 0 35 6 -3 10 -16 10 -28z"/>
<path d="M2192 848 c-17 -17 -15 -28 4 -28 10 0 14 6 11 14 -3 8 -1 17 6 20 7
2 7 5 2 5 -6 1 -16 -4 -23 -11z"/>
<path d="M2551 857 c2 -1 15 -11 29 -22 l25 -20 -19 23 c-11 12 -24 22 -29 22
-6 0 -8 -1 -6 -3z"/>
<path d="M2791 834 c0 -11 3 -14 6 -6 3 7 2 16 -1 19 -3 4 -6 -2 -5 -13z"/>
<path d="M1750 830 c0 -6 7 -10 15 -10 8 0 15 2 15 4 0 2 -7 6 -15 10 -8 3
-15 1 -15 -4z"/>
<path d="M2877 800 c-3 -11 -1 -23 4 -26 5 -3 9 6 9 20 0 31 -6 34 -13 6z"/>
<path d="M2165 780 c6 -10 4 -12 -8 -7 -9 3 -21 -1 -28 -11 -11 -14 -11 -15 0
-5 7 6 19 9 26 7 17 -7 29 13 14 22 -8 5 -9 3 -4 -6z"/>
<path d="M1787 773 c-4 -3 -7 -11 -7 -17 0 -6 5 -5 12 2 6 6 9 14 7 17 -3 3
-9 2 -12 -2z"/>
<path d="M2680 758 c32 -31 35 -45 14 -75 -11 -18 -13 -28 -5 -36 6 -6 11 -16
11 -21 0 -6 -5 -4 -10 4 -7 11 -10 8 -10 -16 0 -41 26 -66 33 -32 4 22 4 22 6
-2 0 -15 5 -30 11 -36 6 -6 6 -15 0 -24 -8 -12 -11 -11 -16 7 -7 27 -24 21
-24 -8 0 -11 -5 -17 -10 -14 -6 4 -8 11 -5 16 4 5 2 9 -3 9 -5 0 -7 26 -6 58
3 53 1 52 -12 -7 l-5 -23 -21 23 c-20 23 -21 23 -16 3 3 -13 -1 -25 -13 -32
-22 -14 -29 1 -19 39 5 15 4 32 0 38 -4 8 -10 -4 -14 -29 -3 -23 -11 -38 -16
-35 -6 3 -10 -1 -10 -11 0 -18 3 -18 -98 14 -35 11 -62 17 -60 14 10 -19 28
-61 38 -89 7 -18 17 -30 22 -27 6 4 5 10 -3 15 -11 7 -10 9 4 9 9 0 17 4 17
10 0 5 -6 7 -14 4 -9 -3 -15 4 -18 20 -5 23 -2 26 21 26 15 0 32 -5 38 -11 7
-7 25 -12 40 -13 19 -1 29 -7 31 -20 3 -15 0 -18 -20 -13 -20 5 -24 2 -26 -21
-1 -24 0 -25 12 -10 17 23 26 13 26 -31 0 -27 3 -32 10 -21 5 8 7 23 4 34 -5
13 -3 16 7 11 9 -6 11 -3 6 9 -9 24 2 66 18 66 7 0 15 5 17 12 2 6 9 9 15 5
16 -10 75 -136 68 -147 -3 -5 -2 -18 4 -27 9 -17 10 -17 16 -1 4 9 3 23 -1 29
-5 9 -2 10 11 5 10 -4 21 -2 24 3 3 5 6 -15 7 -45 0 -46 -3 -54 -18 -54 -10 0
-18 -7 -18 -15 0 -19 26 -19 34 0 8 22 46 19 46 -4 0 -11 -6 -22 -12 -24 -8
-4 -7 -6 3 -6 11 -1 19 10 23 31 6 30 7 31 20 13 19 -29 26 -76 17 -116 -5
-22 -3 -51 5 -79 8 -25 14 -60 14 -77 l0 -33 60 0 60 0 0 164 c0 155 -1 164
-20 169 -15 4 -20 13 -19 34 1 23 2 24 6 6 2 -13 11 -23 19 -23 12 0 14 15 12
78 -3 72 -4 77 -25 75 -27 -3 -51 52 -27 61 9 3 16 -4 20 -20 12 -47 29 -19
30 49 1 37 -2 64 -7 61 -4 -2 -6 -12 -3 -22 6 -18 -22 9 -64 63 l-24 30 21
-36 c12 -20 19 -44 15 -52 -4 -10 0 -15 13 -14 12 2 18 -5 19 -20 1 -12 -2
-20 -7 -17 -4 2 -6 10 -3 18 3 9 -5 13 -26 13 -22 0 -30 -5 -30 -19 0 -10 5
-18 11 -18 5 0 7 5 3 12 -4 7 -3 8 4 4 15 -9 5 -33 -13 -33 -8 0 -12 4 -10 8
3 3 -2 12 -10 19 -11 10 -18 9 -30 -4 -9 -9 -13 -21 -9 -27 4 -8 3 -9 -4 -5
-8 5 -12 0 -12 -13 0 -12 -4 -21 -10 -21 -5 0 -10 -11 -10 -25 0 -14 -4 -25
-9 -25 -10 0 -41 62 -40 82 0 7 5 1 11 -14 5 -16 13 -28 18 -28 7 0 29 51 31
70 0 3 6 11 12 19 9 11 9 13 0 8 -6 -4 -14 -1 -17 5 -3 7 -3 1 -1 -14 3 -20 0
-25 -11 -21 -11 4 -13 14 -8 37 3 17 9 36 13 41 3 6 4 35 0 65 -4 35 -6 43 -7
23 -1 -18 -5 -33 -8 -33 -19 0 -64 38 -65 55 -1 16 -2 17 -6 3 -4 -16 -6 -16
-31 -2 l-27 16 25 -24z m85 -54 c19 -13 24 -22 19 -43 -11 -52 -15 -58 -24
-36 -8 18 -9 18 -9 -4 -2 -43 -19 -9 -21 39 -3 70 -3 69 35 44z m102 -161 c-4
-17 -4 -17 -12 0 -4 9 -4 25 0 35 8 16 8 16 12 0 3 -10 3 -26 0 -35z m35 -25
c-15 -15 -24 -6 -16 16 5 12 10 14 17 7 8 -8 8 -14 -1 -23z m-43 -18 c4 0 8
-18 9 -41 1 -23 -2 -38 -8 -34 -5 3 -12 -10 -16 -30 -3 -20 -12 -35 -20 -35
-8 0 -14 -10 -15 -22 0 -13 -3 -17 -6 -9 -4 11 -7 11 -14 0 -17 -28 -21 2 -5
41 9 23 14 45 11 50 -3 4 3 7 13 6 11 0 18 7 20 22 2 12 7 22 11 22 4 0 6 15
5 33 -2 17 -1 24 2 15 3 -10 9 -18 13 -18z m91 -26 c0 -20 -27 -17 -34 3 -6
14 -8 14 -22 -3 -14 -18 -15 -18 -4 3 7 15 16 20 27 16 12 -5 14 -3 8 8 -8 12
-6 12 8 0 9 -7 17 -20 17 -27z m25 -16 c-8 -43 -15 -48 -15 -11 0 26 6 43 17
43 2 0 1 -14 -2 -32z m-254 -5 c-12 -20 -14 -14 -5 12 4 9 9 14 11 11 3 -2 0
-13 -6 -23z m229 -12 c0 -10 -24 -21 -43 -21 -7 0 -3 7 7 15 22 17 36 19 36 6z
m-173 -33 c-3 -8 -6 -5 -6 6 -1 11 2 17 5 13 3 -3 4 -12 1 -19z m173 2 c0 -5
-5 -10 -11 -10 -5 0 -7 5 -4 10 3 6 8 10 11 10 2 0 4 -4 4 -10z m-20 -39 c0
-5 -7 -11 -15 -15 -19 -7 -19 -26 0 -26 17 0 30 -42 21 -66 -3 -8 -11 -12 -16
-9 -6 4 -17 2 -24 -4 -10 -8 -15 -5 -24 12 -16 34 -20 63 -11 78 7 11 9 10 9
-3 0 -10 5 -18 10 -18 6 0 10 11 10 23 0 13 3 27 7 30 9 10 33 8 33 -2z"/>
<path d="M2762 670 c0 -14 2 -19 5 -12 2 6 2 18 0 25 -3 6 -5 1 -5 -13z"/>
<path d="M1819 753 c-13 -16 -12 -17 4 -4 16 13 21 21 13 21 -2 0 -10 -8 -17
-17z"/>
<path d="M1 734 c0 -11 3 -14 6 -6 3 7 2 16 -1 19 -3 4 -6 -2 -5 -13z"/>
<path d="M2830 747 c0 -4 9 -25 20 -47 26 -52 25 -55 -10 -30 -16 12 -30 17
-30 11 0 -5 14 -18 30 -28 17 -9 30 -23 30 -31 0 -7 5 -10 10 -7 6 3 7 18 4
32 -7 27 -54 114 -54 100z"/>
<path d="M2946 714 c-4 -14 -5 -28 -3 -31 3 -2 8 8 11 23 4 14 5 28 3 31 -3 2
-8 -8 -11 -23z"/>
<path d="M73 705 c-7 -7 -15 -25 -19 -39 -5 -20 -2 -26 10 -26 9 0 16 5 16 10
0 6 7 10 15 10 8 0 15 5 15 10 0 6 -5 10 -11 10 -5 0 -8 4 -5 8 10 16 -8 30
-21 17z"/>
<path d="M2960 680 c0 -6 7 -10 15 -10 8 0 15 2 15 4 0 2 -7 6 -15 10 -8 3
-15 1 -15 -4z"/>
<path d="M2432 660 c0 -14 2 -19 5 -12 2 6 2 18 0 25 -3 6 -5 1 -5 -13z"/>
<path d="M155 642 c2 -3 -1 -12 -8 -20 -10 -13 -8 -14 22 -9 54 11 57 26 7 31
-15 2 -24 1 -21 -2z"/>
<path d="M507 623 c-4 -3 -7 -15 -7 -26 0 -25 13 -14 15 13 2 22 1 23 -8 13z"/>
<path d="M64 595 c-10 -8 -14 -14 -9 -15 15 0 40 18 34 24 -3 3 -14 -1 -25 -9z"/>
<path d="M2250 590 c0 -5 10 -10 23 -11 12 0 30 -2 40 -4 21 -4 23 11 1 19
-25 9 -64 7 -64 -4z"/>
<path d="M2340 580 c0 -5 5 -10 11 -10 5 0 7 5 4 10 -3 6 -8 10 -11 10 -2 0
-4 -4 -4 -10z"/>
<path d="M313 560 c-18 -27 -16 -47 3 -54 22 -9 23 -7 15 37 -6 35 -7 36 -18
17z"/>
<path d="M136 545 c7 -17 20 -20 28 -6 3 5 -1 12 -10 15 -22 9 -24 8 -18 -9z"/>
<path d="M617 523 c-9 -9 12 -33 30 -33 8 0 11 -5 7 -12 -4 -7 -3 -8 4 -4 18
11 14 34 -7 46 -23 12 -26 12 -34 3z"/>
<path d="M178 514 c-4 -4 2 -18 12 -32 11 -13 20 -33 20 -44 0 -16 3 -17 20
-8 24 13 26 2 4 -29 -16 -22 -16 -22 16 -17 63 9 58 27 -25 92 -11 8 -14 12
-6 8 10 -5 12 -3 7 5 -5 7 -10 10 -14 7 -3 -3 -10 1 -16 10 -6 8 -15 12 -18 8z"/>
<path d="M2131 494 c0 -11 3 -14 6 -6 3 7 2 16 -1 19 -3 4 -6 -2 -5 -13z"/>
<path d="M439 483 c-13 -16 -12 -17 4 -4 9 7 17 15 17 17 0 8 -8 3 -21 -13z"/>
<path d="M1318 475 c-22 -29 -22 -44 -3 -72 8 -12 12 -30 9 -40 -5 -15 -4 -15
5 -3 6 8 11 29 12 45 1 24 3 25 6 7 3 -13 9 -19 15 -16 6 4 17 -1 24 -11 11
-15 13 -14 12 14 -1 19 -6 31 -15 31 -7 0 -13 8 -13 18 0 11 -8 26 -17 35 -17
14 -19 13 -35 -8z"/>
<path d="M1273 476 c4 -9 -2 -30 -13 -49 -11 -17 -20 -42 -20 -53 0 -17 5 -20
25 -17 35 7 49 27 36 52 -6 11 -11 31 -11 45 0 14 -5 28 -12 32 -8 5 -9 2 -5
-10z"/>
<path d="M1618 469 c-2 -16 5 -30 20 -43 17 -13 20 -22 13 -29 -14 -14 -14
-50 -1 -42 6 3 10 1 10 -5 0 -8 -10 -10 -27 -6 -16 4 -23 3 -17 -1 6 -4 16
-18 23 -30 25 -48 65 -13 57 49 -3 18 -5 36 -5 41 -1 4 -7 6 -13 5 -7 -2 -14
6 -16 17 -1 11 -11 31 -21 44 l-19 25 -4 -25z"/>
<path d="M2392 481 c-11 -7 -11 -9 2 -14 10 -4 16 -1 16 8 0 17 -1 17 -18 6z"/>
<path d="M60 470 c-13 -8 -12 -11 5 -24 23 -17 35 -12 35 15 0 21 -16 24 -40
9z"/>
<path d="M2462 455 c0 -16 2 -22 5 -12 2 9 2 23 0 30 -3 6 -5 -1 -5 -18z"/>
<path d="M2610 470 c0 -20 2 -25 11 -23 5 2 11 -8 15 -22 4 -15 13 -25 24 -25
30 0 29 23 -3 53 -30 28 -47 34 -47 17z"/>
<path d="M1241 444 c-6 -15 -9 -29 -7 -32 3 -2 10 8 16 23 6 15 9 29 7 31 -2
2 -9 -8 -16 -22z"/>
<path d="M621 444 c0 -11 3 -14 6 -6 3 7 2 16 -1 19 -3 4 -6 -2 -5 -13z"/>
<path d="M2160 455 c0 -5 5 -17 10 -25 5 -8 10 -10 10 -5 0 6 -5 17 -10 25 -5
8 -10 11 -10 5z"/>
<path d="M2210 441 c0 -12 -4 -19 -10 -16 -5 3 -10 -1 -10 -9 0 -9 4 -16 10
-16 11 0 25 48 16 57 -3 4 -6 -4 -6 -16z"/>
<path d="M2256 415 c4 -16 7 -40 7 -52 -1 -13 3 -20 8 -17 5 3 6 -2 3 -10 -3
-9 -10 -16 -15 -16 -5 0 -9 -19 -8 -42 l1 -43 9 33 c5 18 14 30 19 27 14 -8
22 52 10 75 -6 11 -8 26 -4 32 4 7 3 8 -5 4 -6 -4 -15 2 -21 16 -9 20 -10 19
-4 -7z"/>
<path d="M2387 433 c-3 -5 3 -19 13 -33 17 -23 18 -23 36 -5 13 13 14 17 4 13
-8 -3 -22 4 -32 14 -9 10 -19 15 -21 11z"/>
<path d="M332 404 c-18 -14 -29 -30 -26 -36 4 -6 2 -8 -4 -4 -11 6 -25 -9 -28
-30 -1 -6 -5 -25 -8 -41 -6 -25 -3 -33 17 -46 13 -9 29 -12 36 -7 9 5 9 10 3
14 -6 3 -12 2 -14 -3 -1 -5 -12 2 -22 17 -11 14 -14 22 -8 18 7 -4 15 -1 18 8
3 9 14 13 29 10 22 -4 24 -1 21 28 -2 18 -7 41 -11 51 -5 13 -3 16 8 12 8 -4
17 1 21 11 10 26 3 25 -32 -2z"/>
<path d="M713 394 c0 -17 2 -22 7 -13 5 6 6 18 3 26 -8 19 -10 16 -10 -13z"/>
<path d="M1503 387 c-1 -30 -1 -31 9 -9 7 14 8 26 2 32 -5 5 -10 -4 -11 -23z"/>
<path d="M1602 399 c-12 -19 -11 -19 8 -9 11 6 20 15 20 20 0 17 -15 11 -28
-11z"/>
<path d="M1565 400 c-4 -6 -10 -8 -15 -5 -10 6 -25 -13 -35 -43 -6 -21 -4 -23
15 -17 17 5 20 4 15 -5 -5 -9 -4 -11 3 -6 7 4 12 20 12 35 0 15 5 32 12 39 7
7 9 12 6 12 -4 0 -10 -5 -13 -10z"/>
<path d="M2508 379 c4 -29 16 -37 26 -20 8 12 -6 45 -20 48 -6 1 -9 -10 -6
-28z"/>
<path d="M2616 395 c-3 -8 -1 -15 4 -15 6 0 10 7 10 15 0 8 -2 15 -4 15 -2 0
-6 -7 -10 -15z"/>
<path d="M110 385 c-7 -9 -8 -15 -2 -15 5 0 12 7 16 15 3 8 4 15 2 15 -2 0 -9
-7 -16 -15z"/>
<path d="M1197 372 c3 -24 2 -24 -6 -7 l-10 20 0 -20 c0 -11 4 -29 9 -40 8
-19 9 -19 9 3 1 12 5 22 9 22 12 0 9 39 -4 44 -7 3 -10 -6 -7 -22z"/>
<path d="M1161 374 c0 -11 3 -14 6 -6 3 7 2 16 -1 19 -3 4 -6 -2 -5 -13z"/>
<path d="M234 366 c-10 -8 -17 -16 -14 -19 3 -2 14 4 24 14 23 22 18 25 -10 5z"/>
<path d="M680 361 c0 -6 4 -13 10 -16 6 -3 7 1 4 9 -7 18 -14 21 -14 7z"/>
<path d="M915 348 c4 -13 11 -27 16 -33 5 -5 4 5 -2 23 -12 36 -24 44 -14 10z"/>
<path d="M2637 356 c-4 -9 0 -22 8 -30 8 -8 15 -31 15 -50 0 -22 5 -36 13 -37
6 0 2 -5 -10 -11 -13 -6 -28 -24 -35 -39 -10 -22 -20 -29 -40 -29 -18 0 -28 5
-28 15 0 8 -4 15 -10 15 -5 0 -10 -7 -10 -15 0 -8 -4 -15 -10 -15 -16 0 -12
-26 7 -41 13 -11 17 -11 20 -1 8 21 32 13 39 -13 3 -14 10 -25 14 -25 4 0 10
-18 14 -40 l6 -40 86 0 87 0 -6 37 c-4 20 -11 39 -16 43 -6 3 -16 41 -22 83
-7 46 -16 77 -23 76 -27 -3 -31 3 -28 41 3 25 0 40 -7 40 -6 0 -11 9 -11 20 0
11 -4 20 -9 20 -5 0 -16 3 -24 6 -8 3 -17 -2 -20 -10z"/>
<path d="M196 327 c3 -10 9 -15 12 -12 3 3 0 11 -7 18 -10 9 -11 8 -5 -6z"/>
<path d="M601 324 c0 -11 3 -14 6 -6 3 7 2 16 -1 19 -3 4 -6 -2 -5 -13z"/>
<path d="M1160 331 c0 -6 4 -13 10 -16 6 -3 7 1 4 9 -7 18 -14 21 -14 7z"/>
<path d="M2401 310 c-1 -29 -7 -37 -34 -50 -32 -15 -32 -16 -42 -110 l-10 -94
-34 -7 c-31 -6 -50 -22 -51 -41 0 -19 58 -5 88 20 28 24 32 33 27 55 -11 44 2
77 30 77 22 0 25 4 25 40 0 36 3 40 25 40 17 0 25 5 25 18 0 32 -12 62 -25 62
-7 0 -16 6 -18 13 -3 6 -6 -4 -6 -23z"/>
<path d="M1070 316 c0 -8 4 -17 9 -20 5 -4 7 3 4 14 -6 23 -13 26 -13 6z"/>
<path d="M411 304 c0 -11 3 -14 6 -6 3 7 2 16 -1 19 -3 4 -6 -2 -5 -13z"/>
<path d="M720 301 c0 -6 4 -13 10 -16 6 -3 7 1 4 9 -7 18 -14 21 -14 7z"/>
<path d="M1049 283 c6 -11 8 -22 6 -25 -3 -3 2 -5 9 -5 11 0 12 5 5 18 -5 10
-14 21 -20 25 -8 5 -8 1 0 -13z"/>
<path d="M31 274 c0 -11 3 -14 6 -6 3 7 2 16 -1 19 -3 4 -6 -2 -5 -13z"/>
<path d="M2221 263 c0 -25 1 -26 9 -8 12 27 12 35 0 35 -5 0 -10 -12 -9 -27z"/>
<path d="M1270 270 c0 -5 5 -10 11 -10 5 0 7 5 4 10 -3 6 -8 10 -11 10 -2 0
-4 -4 -4 -10z"/>
<path d="M510 263 c0 -17 17 -25 26 -12 4 8 9 7 15 -2 6 -10 9 -10 9 -2 0 17
-17 25 -26 12 -4 -8 -9 -7 -15 2 -6 10 -9 10 -9 2z"/>
<path d="M611 254 c0 -11 3 -14 6 -6 3 7 2 16 -1 19 -3 4 -6 -2 -5 -13z"/>
<path d="M740 261 c0 -6 4 -13 10 -16 6 -3 7 1 4 9 -7 18 -14 21 -14 7z"/>
<path d="M1090 231 c0 -6 5 -13 10 -16 6 -3 10 1 10 9 0 9 -4 16 -10 16 -5 0
-10 -4 -10 -9z"/>
<path d="M1696 231 c-4 -6 -13 -8 -21 -4 -17 6 -19 -16 -9 -79 5 -29 11 -38
26 -38 10 0 21 -7 24 -15 8 -19 24 -19 24 0 0 8 -6 15 -14 15 -8 0 -17 12 -21
27 -3 15 -11 31 -17 34 -6 4 -4 16 7 33 10 15 15 29 12 32 -3 3 -8 1 -11 -5z"/>
<path d="M250 219 c0 -5 5 -7 10 -4 6 3 10 8 10 11 0 2 -4 4 -10 4 -5 0 -10
-5 -10 -11z"/>
<path d="M977 223 c-4 -6 -3 -21 1 -34 11 -29 21 -12 12 21 -3 15 -9 20 -13
13z"/>
<path d="M2246 218 c-12 -37 -12 -55 -2 -56 6 -1 24 -4 39 -8 l28 -6 -22 36
c-25 42 -38 52 -43 34z"/>
<path d="M310 211 c0 -5 5 -13 10 -16 6 -3 10 -2 10 4 0 5 -4 13 -10 16 -5 3
-10 2 -10 -4z"/>
<path d="M1105 190 c-3 -5 -1 -10 4 -10 6 0 11 5 11 10 0 6 -2 10 -4 10 -3 0
-8 -4 -11 -10z"/>
<path d="M2482 180 c0 -14 2 -19 5 -12 2 6 2 18 0 25 -3 6 -5 1 -5 -13z"/>
<path d="M2001 114 c0 -11 3 -14 6 -6 3 7 2 16 -1 19 -3 4 -6 -2 -5 -13z"/>
<path d="M2460 67 c0 -8 -11 -19 -25 -25 -14 -6 -25 -18 -25 -27 0 -12 13 -15
56 -15 l57 0 -7 31 c-3 17 -6 35 -6 40 0 5 -11 9 -25 9 -14 0 -25 -6 -25 -13z"/>
<path d="M1800 58 c0 -6 12 -22 26 -35 l27 -25 -6 24 c-4 13 -7 26 -7 29 0 11
-40 18 -40 7z"/>
</g>
</svg>
