<?xml version="1.0" standalone="no"?>
<!DOCTYPE svg PUBLIC "-//W3C//DTD SVG 20010904//EN"
 "http://www.w3.org/TR/2001/REC-SVG-20010904/DTD/svg10.dtd">
<svg version="1.0" xmlns="http://www.w3.org/2000/svg"
 width="300.000000pt" height="168.000000pt" viewBox="0 0 300.000000 168.000000"
 preserveAspectRatio="xMidYMid meet">

<g transform="translate(0.000000,168.000000) scale(0.100000,-0.100000)"
fill="#000000" stroke="none">
<path d="M0 840 c0 -489 4 -840 10 -840 5 0 10 10 12 23 2 12 8 22 13 22 6 0
15 4 22 8 16 10 24 -5 12 -23 -13 -22 -11 -30 6 -24 8 4 15 12 15 19 0 12 21
25 41 25 5 0 9 -7 9 -16 0 -8 -4 -12 -10 -9 -5 3 -10 -1 -10 -9 0 -26 26 -18
40 12 7 16 14 22 17 14 3 -7 -1 -19 -7 -27 -9 -10 -9 -15 -1 -15 6 0 13 11 17
25 3 13 12 29 20 36 12 9 12 6 3 -20 -6 -18 -9 -35 -5 -38 3 -4 6 -1 6 6 0 7
5 9 10 6 6 -3 10 0 10 8 0 8 6 20 14 26 12 10 15 8 19 -11 4 -22 4 -22 6 3 1
20 6 25 24 24 12 -1 42 4 67 10 25 6 51 10 58 7 9 -3 11 4 7 25 l-6 28 14 -30
c8 -18 16 -25 20 -18 4 7 17 10 28 8 15 -3 19 0 15 10 -3 8 -1 17 4 20 6 4 10
-1 10 -9 0 -22 17 -20 23 1 3 13 5 12 6 -5 0 -13 5 -20 11 -17 5 3 10 1 10 -4
0 -6 11 -11 25 -11 18 0 23 4 19 15 -7 17 11 20 22 4 4 -8 12 -2 22 16 l14 28
13 -23 13 -23 6 21 c4 12 12 20 17 17 5 -4 9 11 9 32 0 22 6 45 13 52 10 11
10 14 0 18 -7 3 -13 9 -13 14 0 12 154 8 162 -5 4 -7 18 -1 36 17 15 15 33 27
39 27 19 0 27 21 12 30 -14 9 12 23 64 35 15 3 36 14 47 25 11 11 29 20 40 20
12 0 31 7 45 16 13 8 36 15 52 14 140 -8 192 1 210 34 8 15 23 36 34 47 18 18
23 19 37 6 15 -13 45 -14 125 -5 16 2 16 3 -1 20 -10 10 -33 26 -52 37 -19 10
-51 39 -70 64 -25 34 -42 47 -60 47 -31 0 -73 38 -120 107 -19 28 -38 49 -42
47 -8 -5 -12 10 -9 34 1 6 -10 17 -24 22 -34 13 -45 13 -45 -1 0 -5 4 -8 9 -5
17 11 41 -6 41 -29 0 -13 8 -31 17 -41 16 -16 16 -16 -7 -9 -18 6 -27 2 -41
-16 -18 -23 -19 -23 -19 -3 0 11 -11 31 -24 43 -13 13 -26 32 -29 42 -4 16 -2
19 15 13 19 -6 19 -5 4 18 -18 28 -10 44 12 26 25 -21 52 -20 52 2 0 17 -5 19
-25 14 -19 -5 -25 -2 -25 10 0 9 -5 16 -10 16 -15 0 -111 78 -102 83 4 2 2 2
-5 1 -6 -2 -14 2 -17 9 -3 7 -4 1 -1 -13 3 -14 2 -19 -1 -12 -3 6 -12 12 -19
12 -7 0 -15 7 -19 15 -3 8 -13 15 -23 15 -15 0 -15 2 -4 9 12 8 9 12 -15 23
-40 17 -86 68 -81 88 2 9 -2 17 -9 17 -7 0 -11 -4 -8 -9 3 -4 -5 -8 -17 -8
-12 0 -19 -3 -16 -7 7 -6 -87 -42 -113 -43 -9 0 -23 -9 -32 -20 -16 -17 -16
-21 -2 -35 9 -8 20 -15 25 -15 5 0 9 -9 9 -21 0 -11 4 -18 8 -15 4 2 14 1 22
-5 10 -6 11 -9 3 -9 -7 0 -13 -7 -13 -15 0 -8 -4 -15 -10 -15 -5 0 -10 -9 -10
-20 0 -11 -6 -20 -14 -20 -12 0 -14 -15 -9 -79 6 -93 -6 -137 -48 -182 -16
-17 -29 -36 -29 -43 0 -6 -7 -22 -16 -34 -13 -18 -19 -21 -30 -11 -11 9 -14 7
-14 -12 -1 -23 -2 -22 -17 6 -9 17 -21 33 -27 37 -6 4 -8 8 -4 8 4 0 0 9 -10
20 l-17 21 -5 -23 c-3 -13 -14 -24 -25 -25 -12 -2 -15 0 -6 3 9 5 4 11 -18 20
-25 11 -31 19 -31 44 0 28 3 30 35 30 19 0 36 -1 38 -2 1 -1 12 4 23 10 14 7
29 36 44 83 l23 71 -20 17 c-11 9 -26 26 -32 39 -13 24 -65 31 -74 10 -4 -10
-8 -9 -17 2 -9 11 -13 12 -17 3 -8 -22 -38 -14 -61 17 -27 36 -28 50 -3 50 10
0 21 7 25 15 9 25 99 12 117 -17 5 -7 21 3 43 27 20 21 36 40 36 42 0 3 11 14
24 24 14 11 27 33 31 50 4 17 13 42 20 56 8 15 12 30 9 35 -3 4 0 8 5 8 6 0
11 8 11 18 0 19 54 81 85 98 11 6 28 27 38 47 13 26 25 37 41 37 13 0 36 6 52
14 40 19 93 41 132 53 29 10 32 9 32 -8 0 -10 6 -19 13 -19 7 -1 5 -6 -5 -14
-23 -17 -23 -23 5 -41 19 -12 29 -13 55 -3 18 7 33 18 33 25 2 21 4 27 15 48
6 11 12 48 13 83 l2 62 -586 0 -585 0 0 -840z m332 258 c-9 -9 -12 -7 -12 12
0 19 3 21 12 12 9 -9 9 -15 0 -24z m744 -117 c-4 -5 0 -12 6 -14 8 -4 7 -6 -3
-6 -9 -1 -19 6 -23 14 -3 9 0 15 10 15 8 0 13 -4 10 -9z m64 -38 c0 -5 -5 -15
-10 -23 -8 -12 -10 -11 -10 8 0 12 5 22 10 22 6 0 10 -3 10 -7z m-265 -204
c12 -12 -14 -31 -29 -22 -5 3 -6 1 -2 -5 4 -6 0 -25 -8 -41 -12 -22 -13 -30
-4 -33 9 -3 9 -14 2 -39 -8 -29 -15 -34 -43 -37 l-33 -3 7 38 c3 21 11 40 16
41 5 2 9 21 9 43 0 33 -3 39 -20 39 -17 0 -19 3 -11 19 8 15 19 17 58 14 26
-3 52 -9 58 -14z m422 -1 c-3 -8 -6 -5 -6 6 -1 11 2 17 5 13 3 -3 4 -12 1 -19z
m-971 -15 c-20 -86 -45 -104 -58 -42 -6 28 -3 37 13 52 33 27 52 22 45 -10z
m1139 -63 c3 -5 1 -10 -4 -10 -6 0 -11 5 -11 10 0 6 2 10 4 10 3 0 8 -4 11
-10z m-505 -30 c0 -5 -4 -10 -10 -10 -5 0 -10 5 -10 10 0 6 5 10 10 10 6 0 10
-4 10 -10z m80 -8 c0 -24 -76 -47 -84 -25 -4 9 3 13 19 13 13 0 30 7 37 15 18
20 28 19 28 -3z m-480 -77 c0 -8 -2 -15 -4 -15 -2 0 -6 7 -10 15 -3 8 -1 15 4
15 6 0 10 -7 10 -15z"/>
<path d="M1240 1672 c0 -5 11 -19 24 -31 17 -16 30 -20 48 -16 16 4 31 1 40
-9 9 -8 33 -16 55 -17 36 -3 39 -5 35 -30 -3 -22 -10 -28 -40 -33 -62 -10 -69
-20 -38 -52 23 -25 31 -50 27 -76 -2 -13 17 -9 33 8 9 8 16 13 16 9 0 -3 8 -1
18 4 13 7 22 7 30 -1 8 -8 9 -5 5 11 -4 15 -1 21 11 21 9 0 16 5 16 11 0 8 5
8 15 -1 8 -7 15 -19 15 -27 0 -11 7 -13 23 -9 31 7 67 -3 67 -20 0 -8 5 -14
10 -14 7 0 8 -13 4 -35 -4 -25 -3 -35 6 -35 7 0 2 -10 -11 -21 l-24 -21 24 7
c16 5 21 4 17 -4 -4 -6 -1 -11 6 -12 34 -2 124 3 128 8 3 2 -5 13 -17 23 -29
23 -30 50 -3 50 11 0 20 7 20 15 0 13 19 20 43 16 4 -1 22 6 39 15 31 16 32
16 50 -7 10 -13 22 -29 28 -36 8 -10 8 -41 0 -63 -2 -3 -2 -8 -1 -12 0 -5 -14
-8 -33 -8 -40 0 -55 -24 -26 -42 11 -7 20 -21 20 -30 0 -10 9 -22 20 -28 22
-12 60 -5 60 11 0 15 46 10 60 -6 7 -8 15 -13 19 -11 3 2 15 -2 26 -10 14 -10
15 -14 4 -15 -8 -1 38 -8 101 -15 166 -19 200 -25 195 -34 -3 -4 6 -11 20 -14
57 -14 93 -92 59 -126 -6 -6 -9 -22 -6 -36 4 -24 8 -25 41 -19 20 4 38 11 39
16 2 5 9 9 16 9 25 0 47 36 41 68 -4 23 -1 34 12 40 14 8 13 11 -8 22 -13 7
-30 20 -37 29 -10 12 -15 13 -18 4 -8 -18 -31 -16 -38 3 -9 24 -9 24 28 24 19
0 41 7 50 15 8 8 19 15 24 15 18 0 24 125 8 166 -3 7 -23 15 -45 19 -23 4 -41
10 -41 14 0 9 -21 12 -72 12 -39 -1 -43 5 -32 46 4 13 11 20 17 16 5 -3 8 -2
5 3 -4 5 17 10 45 11 41 1 57 -3 75 -20 l22 -20 0 22 c0 12 7 24 15 27 8 4 15
13 15 20 0 8 11 19 25 24 14 5 25 14 25 20 0 5 7 10 15 10 11 0 15 11 15 40 0
22 4 40 9 40 8 0 31 52 31 71 0 5 -160 9 -355 9 -348 0 -355 0 -376 -21 -17
-17 -23 -19 -30 -8 -4 7 -9 11 -11 9 -19 -29 -28 -52 -23 -60 3 -5 -6 -12 -20
-16 -14 -3 -25 -11 -25 -17 0 -5 -8 0 -19 11 -11 14 -30 22 -50 22 -17 0 -48
7 -68 15 -19 8 -51 15 -69 15 -24 0 -34 -5 -34 -15 0 -16 -25 -20 -100 -16
-48 3 -90 33 -90 64 0 15 -13 17 -125 17 -69 0 -125 -4 -125 -8z m1220 -218
c0 -8 -7 -14 -15 -14 -17 0 -18 2 -9 24 7 18 24 12 24 -10z m45 -4 c3 -5 -1
-10 -9 -10 -9 0 -16 5 -16 10 0 6 4 10 9 10 6 0 13 -4 16 -10z m-717 -22 c-6
-18 -28 -21 -28 -4 0 9 7 16 16 16 9 0 14 -5 12 -12z m619 -215 c-3 -10 -5 -2
-5 17 0 19 2 27 5 18 2 -10 2 -26 0 -35z"/>
<path d="M1901 1626 c-15 -18 -10 -29 12 -24 9 2 12 9 8 21 -6 17 -8 18 -20 3z"/>
<path d="M2940 1581 c0 -14 -9 -20 -35 -23 -19 -2 -41 -1 -47 3 -15 9 -38 -8
-38 -27 0 -8 -11 -14 -26 -14 -21 0 -24 -3 -15 -13 6 -8 7 -18 3 -22 -4 -5 -1
-5 6 -1 6 4 12 2 12 -3 0 -6 5 -10 12 -8 7 1 12 -4 13 -11 0 -7 6 -17 14 -21
9 -6 10 -11 2 -15 -6 -4 -11 -20 -11 -37 0 -19 -5 -29 -15 -29 -11 0 -15 -11
-15 -40 0 -22 5 -40 10 -40 6 0 10 -9 10 -19 0 -11 -4 -23 -10 -26 -5 -3 -10
-23 -10 -44 0 -22 -6 -44 -15 -51 -7 -6 -17 -32 -21 -56 -4 -28 -11 -44 -20
-44 -8 0 -14 7 -14 17 0 15 -1 15 -18 0 -10 -10 -26 -17 -36 -17 -9 0 -21 -12
-26 -26 -14 -35 -12 -54 3 -54 11 0 11 -11 1 -62 -8 -35 -14 -80 -14 -100 0
-20 -4 -39 -9 -42 -5 -3 -12 -18 -15 -32 -10 -38 17 -66 51 -53 39 15 68 11
95 -14 19 -18 33 -22 66 -19 29 3 42 9 42 19 0 19 -40 63 -57 63 -9 0 -13 17
-13 52 0 40 3 49 12 40 15 -15 68 -16 68 -2 0 6 8 5 20 -2 17 -11 19 -21 16
-54 -6 -51 -16 -75 -27 -68 -5 3 -9 -6 -9 -20 0 -18 5 -26 17 -26 14 0 14 -3
-5 -20 -23 -22 -37 -26 -26 -8 5 8 2 9 -12 4 -10 -4 -26 -10 -34 -13 -13 -4
-13 -4 0 6 12 9 10 11 -11 11 -21 0 -28 -6 -32 -30 -5 -24 -12 -30 -32 -30
-14 0 -25 -4 -25 -9 0 -5 -17 -13 -38 -18 -42 -11 -119 6 -115 25 2 6 -4 9
-12 6 -8 -4 -15 -11 -15 -16 0 -5 -8 -22 -18 -36 -10 -15 -25 -47 -32 -71 -11
-33 -22 -47 -45 -56 -29 -12 -41 -11 -172 12 -26 4 -33 2 -33 -11 0 -9 -5 -16
-10 -16 -6 0 -23 -12 -37 -26 -17 -17 -28 -22 -33 -15 -5 8 -14 8 -33 -2 -17
-9 -23 -17 -16 -24 15 -15 -35 -63 -66 -63 -15 0 -25 -6 -25 -14 0 -9 7 -12
20 -9 15 4 21 -1 26 -23 4 -16 11 -35 17 -42 8 -10 7 -16 -4 -22 -17 -11 -5
-24 31 -35 22 -7 23 -6 11 9 -8 9 -11 19 -7 23 3 4 12 -1 19 -11 15 -20 98
-39 133 -30 14 4 29 15 35 25 9 17 12 18 25 4 9 -8 24 -15 34 -15 11 0 24 -8
29 -17 9 -16 10 -15 11 6 0 18 4 22 20 18 15 -4 20 0 21 16 0 21 1 20 12 -3
l11 -25 4 33 c3 34 19 43 28 17 4 -9 11 -12 18 -7 10 7 65 8 91 2 23 -6 35 1
35 19 0 19 25 31 48 24 6 -3 12 -13 12 -24 0 -14 -9 -21 -30 -25 -25 -5 -30
-11 -30 -35 0 -24 3 -27 26 -23 45 8 76 35 71 61 -2 13 1 23 7 23 19 0 7 -79
-14 -90 -13 -7 -20 -6 -23 3 -4 9 -6 9 -6 -1 -1 -7 -5 -10 -11 -7 -5 3 -10 2
-10 -4 0 -5 5 -13 10 -16 6 -3 10 -15 10 -26 0 -16 7 -19 45 -19 29 0 45 4 45
13 0 7 3 8 8 2 15 -21 34 -16 28 7 -3 13 -3 17 0 10 3 -6 11 -9 17 -5 6 4 8 1
5 -8 -4 -11 5 -15 40 -17 27 -1 50 3 55 11 7 9 10 9 14 0 2 -7 13 -13 23 -13
17 0 19 9 19 85 l0 85 -27 -6 c-35 -9 -43 -22 -39 -61 1 -17 -1 -31 -6 -30 -5
1 -15 -13 -21 -31 -12 -36 -26 -33 -26 5 0 14 4 21 10 18 6 -3 10 1 10 9 0 21
-12 20 -42 -4 l-26 -20 -6 42 c-4 23 -12 48 -18 55 -11 14 20 19 95 14 31 -2
37 1 37 17 0 13 10 24 30 31 l30 10 0 666 0 666 -25 24 c-29 30 -35 31 -35 6z
m20 -452 c0 -5 -7 -9 -15 -9 -8 0 -15 -9 -15 -20 0 -23 -8 -24 -44 -10 -32 12
-33 24 -3 37 28 13 77 14 77 2z m0 -479 c0 -5 -4 -10 -10 -10 -5 0 -10 5 -10
10 0 6 5 10 10 10 6 0 10 -4 10 -10z m-164 -486 c-3 -9 -6 -21 -6 -27 0 -8 -3
-8 -11 0 -13 13 -5 43 12 43 6 0 8 -7 5 -16z m-7 -135 c-19 -12 -21 -6 -7 32
l13 34 3 -29 c2 -16 -2 -32 -9 -37z m78 19 c-3 -8 -6 -5 -6 6 -1 11 2 17 5 13
3 -3 4 -12 1 -19z m-107 -19 c0 -3 -6 -6 -14 -6 -8 0 -11 8 -8 20 4 14 7 16
13 5 5 -7 9 -16 9 -19z m170 1 c0 -5 -4 -10 -10 -10 -5 0 -10 5 -10 10 0 6 5
10 10 10 6 0 10 -4 10 -10z"/>
<path d="M1510 1429 c0 -5 5 -7 10 -4 6 3 10 8 10 11 0 2 -4 4 -10 4 -5 0 -10
-5 -10 -11z"/>
<path d="M1375 1240 c-3 -5 1 -10 9 -10 8 0 18 5 21 10 3 6 -1 10 -9 10 -8 0
-18 -4 -21 -10z"/>
<path d="M1330 1156 c0 -2 7 -6 15 -10 8 -3 15 -1 15 4 0 6 -7 10 -15 10 -8 0
-15 -2 -15 -4z"/>
<path d="M1830 920 c0 -6 7 -13 15 -16 8 -4 15 -12 15 -20 0 -8 7 -14 15 -14
24 0 18 17 -15 40 -16 12 -30 16 -30 10z"/>
<path d="M2450 915 c0 -8 5 -15 10 -15 6 0 10 7 10 15 0 8 -4 15 -10 15 -5 0
-10 -7 -10 -15z"/>
<path d="M1976 255 c-3 -9 0 -15 9 -15 8 0 15 7 15 15 0 8 -4 15 -9 15 -5 0
-11 -7 -15 -15z"/>
<path d="M661 94 c0 -11 3 -14 6 -6 3 7 2 16 -1 19 -3 4 -6 -2 -5 -13z"/>
<path d="M825 90 c-3 -5 1 -10 9 -10 8 0 18 5 21 10 3 6 -1 10 -9 10 -8 0 -18
-4 -21 -10z"/>
<path d="M935 80 c4 -6 11 -8 16 -5 14 9 11 15 -7 15 -8 0 -12 -5 -9 -10z"/>
<path d="M2205 70 c3 -5 8 -10 11 -10 2 0 4 5 4 10 0 6 -5 10 -11 10 -5 0 -7
-4 -4 -10z"/>
<path d="M550 41 c0 -6 4 -13 10 -16 6 -3 7 1 4 9 -7 18 -14 21 -14 7z"/>
<path d="M1670 30 c0 -5 5 -10 11 -10 5 0 7 5 4 10 -3 6 -8 10 -11 10 -2 0 -4
-4 -4 -10z"/>
<path d="M1743 33 c-7 -2 -13 -9 -13 -14 0 -4 7 -5 17 -2 12 5 14 3 8 -7 -6
-10 -2 -12 16 -7 13 4 30 7 37 7 19 0 14 16 -5 16 -10 1 -25 4 -33 7 -8 3 -21
3 -27 0z"/>
<path d="M1844 26 c-8 -22 3 -33 18 -18 9 9 9 15 0 24 -9 9 -13 7 -18 -6z"/>
<path d="M1996 31 c-4 -7 -5 -15 -2 -18 9 -9 19 4 14 18 -4 11 -6 11 -12 0z"/>
<path d="M2038 33 c-10 -2 -18 -11 -18 -19 0 -12 4 -12 20 -4 11 6 20 15 20
20 0 6 -1 9 -2 9 -2 -1 -11 -3 -20 -6z"/>
<path d="M2540 25 c0 -8 -4 -15 -10 -15 -5 0 -10 5 -10 10 0 14 -17 12 -23 -2
-3 -9 8 -14 35 -16 36 -2 38 -1 28 18 -13 24 -20 26 -20 5z"/>
<path d="M2135 20 c-3 -5 -1 -10 4 -10 6 0 11 5 11 10 0 6 -2 10 -4 10 -3 0
-8 -4 -11 -10z"/>
<path d="M2240 21 c0 -6 4 -13 10 -16 6 -3 7 1 4 9 -7 18 -14 21 -14 7z"/>
<path d="M770 10 c0 -5 7 -10 16 -10 8 0 12 5 9 10 -3 6 -10 10 -16 10 -5 0
-9 -4 -9 -10z"/>
<path d="M834 13 c10 -11 36 -12 36 -2 0 5 -10 9 -22 9 -12 0 -18 -3 -14 -7z"/>
<path d="M2465 10 c3 -5 8 -10 11 -10 2 0 4 5 4 10 0 6 -5 10 -11 10 -5 0 -7
-4 -4 -10z"/>
<path d="M2620 10 c-12 -8 -10 -10 8 -10 13 0 20 4 17 10 -7 12 -6 12 -25 0z"/>
</g>
</svg>
