<?xml version="1.0" standalone="no"?>
<!DOCTYPE svg PUBLIC "-//W3C//DTD SVG 20010904//EN"
 "http://www.w3.org/TR/2001/REC-SVG-20010904/DTD/svg10.dtd">
<svg version="1.0" xmlns="http://www.w3.org/2000/svg"
 width="298.000000pt" height="169.000000pt" viewBox="0 0 298.000000 169.000000"
 preserveAspectRatio="xMidYMid meet">

<g transform="translate(0.000000,169.000000) scale(0.100000,-0.100000)"
fill="#000000" stroke="none">
<path d="M1368 1660 c-328 -52 -587 -292 -674 -625 -13 -51 -18 -104 -18 -200
1 -111 5 -143 28 -220 109 -361 415 -595 781 -596 226 -1 415 73 573 225 170
163 253 359 253 597 0 214 -62 381 -205 552 -88 105 -273 217 -417 252 -80 19
-245 27 -321 15z m302 -76 c88 -20 232 -92 307 -154 124 -103 214 -251 254
-415 27 -116 23 -282 -11 -390 -71 -227 -238 -410 -451 -493 -41 -16 -86 -32
-101 -36 l-28 -6 0 132 c-1 90 -6 146 -15 173 -20 54 -20 52 26 59 102 16 203
95 232 181 19 55 22 185 6 255 -5 25 -21 62 -35 83 -22 33 -23 42 -14 77 10
39 5 105 -10 130 -13 21 -86 -16 -122 -61 l-30 -37 -36 16 c-52 23 -252 23
-304 0 l-38 -17 -25 33 c-27 35 -109 85 -121 74 -14 -15 -23 -101 -15 -141 8
-34 7 -45 -10 -65 -31 -39 -49 -119 -49 -212 0 -99 17 -160 60 -211 34 -43
130 -96 189 -105 34 -5 41 -10 35 -23 -3 -9 -11 -34 -17 -56 -13 -50 -20 -55
-82 -55 -61 0 -98 21 -150 85 -42 51 -80 75 -120 75 -31 0 -32 -7 0 -31 13
-11 47 -57 74 -102 63 -105 104 -132 204 -132 l67 0 0 -57 c0 -70 -5 -72 -118
-28 -213 82 -381 261 -451 481 -61 192 -43 400 50 580 94 181 244 311 433 374
138 46 268 52 416 19z"/>
</g>
</svg>
