<?xml version="1.0" standalone="no"?>
<!DOCTYPE svg PUBLIC "-//W3C//DTD SVG 20010904//EN"
 "http://www.w3.org/TR/2001/REC-SVG-20010904/DTD/svg10.dtd">
<svg version="1.0" xmlns="http://www.w3.org/2000/svg"
 width="225.000000pt" height="225.000000pt" viewBox="0 0 225.000000 225.000000"
 preserveAspectRatio="xMidYMid meet">

<g transform="translate(0.000000,225.000000) scale(0.100000,-0.100000)"
fill="#000000" stroke="none">
<path d="M485 2041 c-50 -22 -92 -71 -100 -114 -3 -18 -5 -390 -3 -828 l3
-796 28 -36 c16 -21 46 -46 67 -57 38 -19 60 -20 645 -20 585 0 607 1 645 20
21 11 51 36 67 57 l28 36 3 255 3 255 -28 -19 c-16 -11 -56 -39 -90 -64 l-62
-45 -3 -155 -3 -155 -560 0 -560 0 0 750 0 750 560 0 560 0 5 -155 5 -155 85
-63 85 -63 3 228 c2 125 0 242 -3 260 -8 43 -50 92 -100 114 -37 17 -79 19
-640 19 -561 0 -603 -2 -640 -19z"/>
<path d="M1500 1346 l0 -126 -235 0 -235 0 0 -95 0 -95 235 0 234 0 3 -126 3
-125 228 170 c125 94 227 173 227 176 0 4 -419 322 -447 339 -10 6 -13 -21
-13 -118z"/>
</g>
</svg>
