<?xml version="1.0" standalone="no"?>
<!DOCTYPE svg PUBLIC "-//W3C//DTD SVG 20010904//EN"
 "http://www.w3.org/TR/2001/REC-SVG-20010904/DTD/svg10.dtd">
<svg version="1.0" xmlns="http://www.w3.org/2000/svg"
 width="245.000000pt" height="206.000000pt" viewBox="0 0 245.000000 206.000000"
 preserveAspectRatio="xMidYMid meet">

<g transform="translate(0.000000,206.000000) scale(0.100000,-0.100000)"
fill="#000000" stroke="none">
<path d="M1109 2050 c-388 -49 -716 -311 -849 -678 -65 -179 -77 -409 -31
-584 110 -421 461 -728 888 -778 370 -43 752 139 961 458 109 165 160 323 169
517 17 382 -177 733 -515 935 -174 103 -425 155 -623 130z m342 -129 c107 -27
191 -65 284 -126 178 -116 307 -291 371 -500 26 -83 28 -104 28 -260 1 -149
-2 -180 -22 -250 -25 -89 -98 -244 -135 -289 l-24 -29 -46 71 c-57 88 -114
151 -190 209 -60 47 -157 101 -216 121 l-34 12 40 29 c126 92 200 249 190 405
-12 200 -147 369 -340 428 -87 26 -214 22 -298 -11 -117 -45 -233 -162 -279
-280 -73 -188 -2 -423 163 -542 34 -25 37 -30 21 -35 -61 -19 -193 -94 -251
-143 -76 -64 -164 -167 -189 -223 -9 -21 -21 -38 -25 -38 -27 0 -119 177 -155
297 -36 119 -44 320 -19 444 36 178 112 325 238 456 143 149 319 241 522 273
89 14 278 4 366 -19z m-116 -283 c55 -14 89 -33 137 -76 86 -78 123 -171 116
-297 -8 -145 -79 -254 -207 -314 -49 -23 -69 -26 -156 -26 -87 0 -107 3 -155
26 -82 39 -135 90 -172 167 -31 62 -33 73 -33 172 0 98 2 109 32 165 84 162
249 230 438 183z m35 -843 c197 -41 374 -174 465 -346 l37 -71 -28 -30 c-50
-53 -202 -145 -291 -177 -229 -83 -483 -78 -696 15 -75 33 -212 121 -251 162
l-28 30 37 71 c89 170 268 305 459 346 83 18 210 18 296 0z"/>
</g>
</svg>
